<svg xmlns="http://www.w3.org/2000/svg" >
<symbol id="icon1" width="250" height="250" viewBox="0 0 250 250">
<path d="M197.34,129.91h-23.87c5.59-6.16,8.84-13.48,8.84-21.34c0-13.27-9.24-25.01-23.42-32.22c3.71-4.18,5.88-9.15,5.88-14.49
	c0-9.8-7.26-18.37-18.11-23.07c0.45-1.22,0.71-2.5,0.71-3.83c0-6.19-5.25-11.46-12.64-13.59c0-10.88,15.62-27.99-10.33-0.82
	c-9.51,1.09-16.79,7.12-16.79,14.41c0,1.33,0.26,2.61,0.71,3.83c-10.85,4.7-18.11,13.28-18.11,23.07c0,4.9,1.82,9.49,5,13.45
	c-15.39,7.09-25.56,19.33-25.56,33.25c0,7.86,3.25,15.18,8.84,21.34H54.85v14.86h12.44L85.5,228.8c0,8.21,18.17,14.86,40.59,14.86
	c22.42,0,40.59-6.65,40.59-14.86l20.39-84.04h10.27V129.91z"/>
<g>
</g>
<g>
</g>
<g>
</g>
<g>
</g>
<g>
</g>
<g>
</g>
</symbol>


<symbol id="icon2" width="250" height="250" viewBox="0 0 250 250">
<g>
	<path fill="none" d="M128.44,94.86c-2.17,7.52-13.74,11.2-11.29,20.27c1.83,6.77,8.31,11.86,12.19,17.75
		c3.4,5.16,3.7,10.66-1.5,14.77c-2.45,1.94-5.2,3.76-6.42,6.56c-2.82,6.48-0.89,12.3,3.74,17.65c3.03,3.5,6.83,6.4,8.54,10.66
		c1.67,4.18-3.99,9.13-6.53,12.12c-2.84,3.36,3.58,6.59,6.39,3.27c3.75-4.43,8.85-9.57,7.6-15.55c-1.53-7.32-8.62-11.57-12.62-17.75
		c-5.12-7.9,5.67-11.8,9.32-17.46c4.36-6.77-0.25-15.15-4.48-20.93c-2.14-2.92-4.74-5.58-6.96-8.46c-3.5-4.55-1.68-7.9,2.23-11.76
		c4.72-4.65,9.18-10.4,7.32-16.98c-1.94-6.84-7.37-11.88-11.56-17.69c-6.15-8.53,0.41-13.94,10.19-15.29
		c4.7-0.65,2.7-6.89-1.97-6.25c-14.54,2.01-21.81,11.35-15.47,23.44C120.85,80.28,130.93,86.23,128.44,94.86z"/>
	<g>
		<path d="M64.69,224.68c0,2.75,2.25,5,5,5h25.77c2.75,0,5-2.25,5-5V22.97c0-2.75-2.25-5-5-5H69.69c-2.75,0-5,2.25-5,5V224.68z"/>
	</g>
	<g>
		<path d="M161.58,15.6c-2.75,0-5,2.25-5,5V222.3c0,2.75,2.25,5,5,5h25.78c2.75,0,5-2.25,5-5V20.6c0-2.75-2.25-5-5-5H161.58z"/>
	</g>
	<g>
		<path d="M106.96,229.87c0,8.25,6.75,15,15,15h12.28c8.25,0,15-6.75,15-15V19.21c0-8.25-6.75-15-15-15h-12.28
			c-8.25,0-15,6.75-15,15V229.87z M132.63,49.81c4.67-0.65,6.67,5.6,1.97,6.25c-9.78,1.35-16.34,6.76-10.19,15.29
			c4.19,5.81,9.62,10.85,11.56,17.69c1.86,6.58-2.6,12.32-7.32,16.98c-3.91,3.86-5.73,7.21-2.23,11.76
			c2.22,2.88,4.82,5.53,6.96,8.46c4.23,5.78,8.84,14.17,4.48,20.93c-3.65,5.66-14.44,9.56-9.32,17.46
			c4,6.17,11.09,10.43,12.62,17.75c1.25,5.98-3.85,11.12-7.6,15.55c-2.81,3.32-9.24,0.09-6.39-3.27c2.54-2.99,8.2-7.94,6.53-12.12
			c-1.71-4.26-5.51-7.16-8.54-10.66c-4.63-5.36-6.56-11.18-3.74-17.65c1.22-2.8,3.97-4.62,6.42-6.56c5.21-4.11,4.9-9.61,1.5-14.77
			c-3.88-5.9-10.35-10.98-12.19-17.75c-2.45-9.07,9.12-12.75,11.29-20.27c2.49-8.63-7.58-14.59-11.27-21.62
			C110.82,61.16,118.09,51.82,132.63,49.81z"/>
	</g>
</g>
<g>
</g>
<g>
</g>
<g>
</g>
<g>
</g>
<g>
</g>
<g>
</g>
</symbol>

<symbol id="icon3" width="250" height="250" viewBox="0 0 250 250">
<g>
	<path fill="none" d="M74.87,105.47c0,0.29,0.07,0.58,0.16,0.86l23.59,123.5c0,4.27,13.78,7.74,30.78,7.74s30.78-3.46,30.78-7.74
		l21.46-123.58c0.08-0.26,0.14-0.52,0.14-0.78c0-6.36-23.93-11.52-53.45-11.52C98.8,93.96,74.87,99.11,74.87,105.47z"/>
	<path d="M203.65,5.88h-40.45L147.2,69.58l0.06,0c-6-0.39-12.36-0.6-18.94-0.6c-36.45,0-66,6.37-66,14.22c0,0.36,0.08,0.71,0.2,1.06
		l29.13,152.5c0,5.28,17.01,9.56,38,9.56s38-4.28,38-9.56l26.5-152.6c0.1-0.32,0.17-0.64,0.17-0.96c0-5.83-16.26-10.83-39.53-13.03
		l0.02,0l15.05-56.76l33.78,0.44c1.35,0,2.44-1.79,2.44-4C206.1,7.67,205,5.88,203.65,5.88z M181.77,105.47
		c0,0.26-0.05,0.52-0.14,0.78l-21.46,123.58c0,4.27-13.78,7.74-30.78,7.74s-30.78-3.46-30.78-7.74l-23.59-123.5
		c-0.1-0.29-0.16-0.57-0.16-0.86c0-6.36,23.93-11.52,53.45-11.52C157.84,93.96,181.77,99.11,181.77,105.47z"/>
</g>
<g>
</g>
<g>
</g>
<g>
</g>
<g>
</g>
<g>
</g>
<g>
</g>
</symbol>

<symbol id="icon4" width="250" height="250" viewBox="0 0 250 250">

<line fill="none" x1="90.13" y1="140.44" x2="100.02" y2="139.61"/>
<line fill="none" x1="100.02" y1="139.61" x2="109.18" y2="140.44"/>
<line fill="none" x1="109.18" y1="140.44" x2="106.61" y2="143.55"/>
<line fill="none" x1="106.61" y1="143.55" x2="90.13" y2="140.44"/>
<g>
	<path d="M123.71,38.06c-58.8,0-106.48,30.3-106.48,67.68h212.96C230.19,68.36,182.52,38.06,123.71,38.06z"/>
	<g>
		<path d="M230.49,127.72c0-5.5-4.5-10-10-10H29.3c-5.5,0-10,4.5-10,10v4.87c0,5.5,4.5,10,10,10h191.19c5.5,0,10-4.5,10-10V127.72z"
			/>
	</g>
	<g>
		<path d="M23.27,185.5c-2.75,0-5,2.25-5,5v29.37c0,2.75,2.25,5,5,5h203.25c2.75,0,5-2.25,5-5V190.5c0-2.75-2.25-5-5-5H23.27z"/>
	</g>
	<g>
		<path d="M227.04,167.31c6.89-0.46,7.29-13.34,0.4-13.81c-102.12-6.89-102.58-0.9-204.7,5.99c-6.89,0.46-7.52,12.6-0.71,13.77
			C122.84,190.7,124.92,174.2,227.04,167.31z"/>
	</g>
</g>
<g>
</g>
<g>
</g>
<g>
</g>
<g>
</g>
<g>
</g>
<g>
</g>
</symbol>
<symbol id="icon5" width="250" height="250" viewBox="0 0 250 250">
<g>
	<path fill="none" d="M74.3,33.22l-60.62,201.8l200.96-94.34L74.3,33.22z M49.29,201.47c-6.75,0-12.23-5.51-12.23-12.3
		c0-6.79,5.47-12.3,12.23-12.3c6.75,0,12.23,5.51,12.23,12.3C61.52,195.97,56.04,201.47,49.29,201.47z M61.52,159.49
		c-6.75,0-12.23-5.51-12.23-12.3c0-6.79,5.48-12.3,12.23-12.3s12.23,5.51,12.23,12.3C73.74,153.98,68.27,159.49,61.52,159.49z
		 M71.19,71.01c0-6.79,5.47-12.3,12.23-12.3s12.23,5.51,12.23,12.3s-5.47,12.3-12.23,12.3S71.19,77.8,71.19,71.01z M77.58,115.19
		c0-6.79,5.47-12.3,12.23-12.3s12.23,5.51,12.23,12.3c0,6.79-5.47,12.3-12.23,12.3S77.58,121.98,77.58,115.19z M102.03,176.87
		c-6.75,0-12.23-5.51-12.23-12.3c0-6.79,5.48-12.3,12.23-12.3c6.75,0,12.23,5.51,12.23,12.3
		C114.26,171.37,108.79,176.87,102.03,176.87z M128.31,137.6c-6.75,0-12.23-5.51-12.23-12.3c0-6.79,5.47-12.3,12.23-12.3
		c6.75,0,12.23,5.51,12.23,12.3C140.54,132.09,135.06,137.6,128.31,137.6z M164.95,147.19c-6.75,0-12.23-5.51-12.23-12.3
		s5.48-12.3,12.23-12.3c6.75,0,12.23,5.51,12.23,12.3S171.7,147.19,164.95,147.19z"/>
	<g>
		<path d="M83.4,5.78c-4.37-3.34-9.23-1.77-10.82,3.5L3.12,240.52c-1.58,5.27,1.2,7.67,6.18,5.33l231.25-108.56
			c4.98-2.34,5.48-6.99,1.11-10.33L83.4,5.78z M71.43,42.8c1.58-5.27,6.45-6.84,10.82-3.5L206.7,134.6
			c4.37,3.34,3.87,7.99-1.11,10.33L22.74,230.77c-4.98,2.34-7.76-0.06-6.18-5.33L71.43,42.8z"/>
	</g>
	<ellipse cx="83.42" cy="71.01" rx="12.23" ry="12.3"/>
	<ellipse cx="102.03" cy="164.57" rx="12.23" ry="12.3"/>
	<ellipse cx="89.8" cy="115.19" rx="12.23" ry="12.3"/>
	<ellipse cx="61.52" cy="147.19" rx="12.23" ry="12.3"/>
	<ellipse cx="49.29" cy="189.17" rx="12.23" ry="12.3"/>
	<ellipse cx="128.31" cy="125.3" rx="12.23" ry="12.3"/>
	<ellipse cx="164.95" cy="134.89" rx="12.23" ry="12.3"/>
</g>
<g>
</g>
<g>
</g>
<g>
</g>
<g>
</g>
<g>
</g>
<g>
</g>
</symbol>
</svg>