<?xml version="1.0" encoding="utf-8"?>
<!-- Generator: Adobe Illustrator 16.0.4, SVG Export Plug-In . SVG Version: 6.00 Build 0)  -->
<!DOCTYPE svg PUBLIC "-//W3C//DTD SVG 1.1//EN" "http://www.w3.org/Graphics/SVG/1.1/DTD/svg11.dtd">


<svg version="1.1" id="Layer_1" xmlns="http://www.w3.org/2000/svg" xmlns:xlink="http://www.w3.org/1999/xlink" x="0px" y="0px"
	 width="250px" height="250px" viewBox="0 0 250 250" enable-background="new 0 0 250 250" xml:space="preserve">

<def>
	<style>
		#top {
			animation: bounce-in 3s linear 3s, appear 5s;
			fill: tan;
		}

		#meat {
			animation: bounce-in 3s linear 2s, appear 5s;
			fill: brown;
		}

		#lettuce {
			animation: bounce-in 3s linear 1s, appear 5s;
			fill: yellow;
		}

		#bottom {
			animation: bounce-in 3s linear;
			fill: tan;
		}

		@keyframes bounce-in {
		  0% {
		    transform: translateY(-500px);
		    animation-timing-function: ease-in;
		  }
		  38% {
		    transform: translateY(0);
		    animation-timing-function: ease-out;
		  }
		  55% {
		    transform: translateY(-65px);
		    animation-timing-function: ease-in;
		  }
		  72% {
		    transform: translateY(0);
		    animation-timing-function: ease-out;
		  }
		  81% {
		    transform: translateY(-28px);
		    animation-timing-function: ease-in;
		  }
		  90% {
		    transform: translateY(0);
		    animation-timing-function: ease-out;
		  }
		  95% {
		    transform: translateY(-8px);
		    animation-timing-function: ease-in;
		  }
		  100% {
		    transform: translateY(0);
		    animation-timing-function: ease-out;
		  }
		}

		@keyframes appear {
			0% {
				opacity: 0;
			}

			100% {
				opacity: 1;
			}
		}

	</style>
</def>

<line fill="none" x1="90.13" y1="140.44" x2="100.02" y2="139.61"/>
<line fill="none" x1="100.02" y1="139.61" x2="109.18" y2="140.44"/>
<line fill="none" x1="109.18" y1="140.44" x2="106.61" y2="143.55"/>
<line fill="none" x1="106.61" y1="143.55" x2="90.13" y2="140.44"/>
<g>
	<path id="top" d="M123.71,38.06c-58.8,0-106.48,30.3-106.48,67.68h212.96C230.19,68.36,182.52,38.06,123.71,38.06z"/>
	<g>
		<path id="meat" d="M230.49,127.72c0-5.5-4.5-10-10-10H29.3c-5.5,0-10,4.5-10,10v4.87c0,5.5,4.5,10,10,10h191.19c5.5,0,10-4.5,10-10V127.72z"/>
	</g>
	<g>
		<path id="lettuce" d="M227.04,167.31c6.89-0.46,7.29-13.34,0.4-13.81c-102.12-6.89-102.58-0.9-204.7,5.99c-6.89,0.46-7.52,12.6-0.71,13.77
			C122.84,190.7,124.92,174.2,227.04,167.31z"/>
	</g>
	<g>
		<path id="bottom" d="M23.27,185.5c-2.75,0-5,2.25-5,5v29.37c0,2.75,2.25,5,5,5h203.25c2.75,0,5-2.25,5-5V190.5c0-2.75-2.25-5-5-5H23.27z"/>
	</g>
</g>
<g>
</g>
<g>
</g>
<g>
</g>
<g>
</g>
<g>
</g>
<g>
</g>
</svg>
