<?xml version="1.0" encoding="utf-8"?>
<!-- Generator: Adobe Illustrator 16.0.4, SVG Export Plug-In . SVG Version: 6.00 Build 0)  -->
<!DOCTYPE svg PUBLIC "-//W3C//DTD SVG 1.1//EN" "http://www.w3.org/Graphics/SVG/1.1/DTD/svg11.dtd">
<svg version="1.1" id="Layer_1" xmlns="http://www.w3.org/2000/svg" xmlns:xlink="http://www.w3.org/1999/xlink" x="0px" y="0px"
	 width="250px" height="250px" viewBox="0 0 250 250" enable-background="new 0 0 250 250" xml:space="preserve">

	 <def>
	 	<style>
	 		#mustard {
	 			fill: #FFDB58;
	 			animation: color 5s ease-in-out;
	 		}

	 		#bun-left {
	 			fill: tan;
	 			animation: slide-right 1s ease-in;
	 		}

	 		#bun-right {
	 			fill: tan;
	 			animation: slide-left 1s ease-in;
	 		}

	 		#hotdog {
	 			fill: #A65037;

	 		}

	 		@keyframes color {
			  0% {
			    fill: #FFDB58;
			  }
			  60% {
			    fill: red;
			  }
			  100% {
			  	fill: #FFDB58;
			  }
			}

			@keyframes slide-right {
			  0% {
			    transform: translateX(0);
			  }
			  100% {
			    transform: translateX(100px);
			  }
			}

			@keyframes slide-left {
			  0% {
			    transform: translateX(0);
			  }
			  100% {
			    transform: translateX(-100px);
			  }
			}

	 	</style>
	 </def>
<g>
	<path id="mustard" fill="none" d="M128.44,94.86c-2.17,7.52-13.74,11.2-11.29,20.27c1.83,6.77,8.31,11.86,12.19,17.75
		c3.4,5.16,3.7,10.66-1.5,14.77c-2.45,1.94-5.2,3.76-6.42,6.56c-2.82,6.48-0.89,12.3,3.74,17.65c3.03,3.5,6.83,6.4,8.54,10.66
		c1.67,4.18-3.99,9.13-6.53,12.12c-2.84,3.36,3.58,6.59,6.39,3.27c3.75-4.43,8.85-9.57,7.6-15.55c-1.53-7.32-8.62-11.57-12.62-17.75
		c-5.12-7.9,5.67-11.8,9.32-17.46c4.36-6.77-0.25-15.15-4.48-20.93c-2.14-2.92-4.74-5.58-6.96-8.46c-3.5-4.55-1.68-7.9,2.23-11.76
		c4.72-4.65,9.18-10.4,7.32-16.98c-1.94-6.84-7.37-11.88-11.56-17.69c-6.15-8.53,0.41-13.94,10.19-15.29
		c4.7-0.65,2.7-6.89-1.97-6.25c-14.54,2.01-21.81,11.35-15.47,23.44C120.85,80.28,130.93,86.23,128.44,94.86z"/>
	<g>
		<path id="bun-left" d="M64.69,224.68c0,2.75,2.25,5,5,5h25.77c2.75,0,5-2.25,5-5V22.97c0-2.75-2.25-5-5-5H69.69c-2.75,0-5,2.25-5,5V224.68z"/>
	</g>
	<g>
		<path id="bun-right" d="M161.58,15.6c-2.75,0-5,2.25-5,5V222.3c0,2.75,2.25,5,5,5h25.78c2.75,0,5-2.25,5-5V20.6c0-2.75-2.25-5-5-5H161.58z"/>
	</g>
	<g>
		<path id="hotdog" d="M106.96,229.87c0,8.25,6.75,15,15,15h12.28c8.25,0,15-6.75,15-15V19.21c0-8.25-6.75-15-15-15h-12.28
			c-8.25,0-15,6.75-15,15V229.87z M132.63,49.81c4.67-0.65,6.67,5.6,1.97,6.25c-9.78,1.35-16.34,6.76-10.19,15.29
			c4.19,5.81,9.62,10.85,11.56,17.69c1.86,6.58-2.6,12.32-7.32,16.98c-3.91,3.86-5.73,7.21-2.23,11.76
			c2.22,2.88,4.82,5.53,6.96,8.46c4.23,5.78,8.84,14.17,4.48,20.93c-3.65,5.66-14.44,9.56-9.32,17.46
			c4,6.17,11.09,10.43,12.62,17.75c1.25,5.98-3.85,11.12-7.6,15.55c-2.81,3.32-9.24,0.09-6.39-3.27c2.54-2.99,8.2-7.94,6.53-12.12
			c-1.71-4.26-5.51-7.16-8.54-10.66c-4.63-5.36-6.56-11.18-3.74-17.65c1.22-2.8,3.97-4.62,6.42-6.56c5.21-4.11,4.9-9.61,1.5-14.77
			c-3.88-5.9-10.35-10.98-12.19-17.75c-2.45-9.07,9.12-12.75,11.29-20.27c2.49-8.63-7.58-14.59-11.27-21.62
			C110.82,61.16,118.09,51.82,132.63,49.81z"/>
	</g>
</g>
<g>
</g>
<g>
</g>
<g>
</g>
<g>
</g>
<g>
</g>
<g>
</g>
</svg>
