<?xml version="1.0" encoding="utf-8"?>
<!-- Generator: Adobe Illustrator 16.0.4, SVG Export Plug-In . SVG Version: 6.00 Build 0)  -->
<!DOCTYPE svg PUBLIC "-//W3C//DTD SVG 1.1//EN" "http://www.w3.org/Graphics/SVG/1.1/DTD/svg11.dtd">
<svg version="1.1" id="Layer_1" xmlns="http://www.w3.org/2000/svg" xmlns:xlink="http://www.w3.org/1999/xlink" x="0px" y="0px"
	 width="250px" height="250px" viewBox="0 0 250 250" enable-background="new 0 0 250 250" xml:space="preserve">

	 <def>
	 	<style>

	 		path {
	 			animation: shake 10s, color 10s ease-in-out;
	 			fill: #c2f2d0;
	 		}

	 		@keyframes shake {
			  0%,
			  100% {
			    transform: rotate(0deg);
			    transform-origin: 50% 100%;
			
			  }
			  10% {
			    transform: rotate(2deg);
			  }
			  20%,
			  40%,
			  60% {
			    transform: rotate(-4deg);
			
			  }
			  30%,
			  50%,
			  70% {
			    transform: rotate(4deg);
			  }
			  80% {
			    transform: rotate(-2deg);
			  }
			  90% {
			    transform: rotate(2deg);
			  }
			}

		    @keyframes color {
		    	0% {
		    		fill: #c2f2d0;
		    	}
		    	70% {
		    		fill: #ffc5d9;
		    	}
		    	100% {
		    		fill: #c2f2d0;
		    	}
		    }
	 	</style>
	 </def>
<path d="M197.34,129.91h-23.87c5.59-6.16,8.84-13.48,8.84-21.34c0-13.27-9.24-25.01-23.42-32.22c3.71-4.18,5.88-9.15,5.88-14.49
	c0-9.8-7.26-18.37-18.11-23.07c0.45-1.22,0.71-2.5,0.71-3.83c0-6.19-5.25-11.46-12.64-13.59c0-10.88,15.62-27.99-10.33-0.82
	c-9.51,1.09-16.79,7.12-16.79,14.41c0,1.33,0.26,2.61,0.71,3.83c-10.85,4.7-18.11,13.28-18.11,23.07c0,4.9,1.82,9.49,5,13.45
	c-15.39,7.09-25.56,19.33-25.56,33.25c0,7.86,3.25,15.18,8.84,21.34H54.85v14.86h12.44L85.5,228.8c0,8.21,18.17,14.86,40.59,14.86
	c22.42,0,40.59-6.65,40.59-14.86l20.39-84.04h10.27V129.91z"/>
<g>
</g>
<g>
</g>
<g>
</g>
<g>
</g>
<g>
</g>
<g>
</g>
</svg>
