<?xml version="1.0" encoding="utf-8"?>
<!-- Generator: Adobe Illustrator 16.0.4, SVG Export Plug-In . SVG Version: 6.00 Build 0)  -->
<!DOCTYPE svg PUBLIC "-//W3C//DTD SVG 1.1//EN" "http://www.w3.org/Graphics/SVG/1.1/DTD/svg11.dtd">
<svg version="1.1" id="Layer_1" xmlns="http://www.w3.org/2000/svg" xmlns:xlink="http://www.w3.org/1999/xlink" x="0px" y="0px"
	 width="250px" height="250px" viewBox="0 0 250 250" enable-background="new 0 0 250 250" xml:space="preserve">
<g>
	<path fill="none" d="M74.3,33.22l-60.62,201.8l200.96-94.34L74.3,33.22z M49.29,201.47c-6.75,0-12.23-5.51-12.23-12.3
		c0-6.79,5.47-12.3,12.23-12.3c6.75,0,12.23,5.51,12.23,12.3C61.52,195.97,56.04,201.47,49.29,201.47z M61.52,159.49
		c-6.75,0-12.23-5.51-12.23-12.3c0-6.79,5.48-12.3,12.23-12.3s12.23,5.51,12.23,12.3C73.74,153.98,68.27,159.49,61.52,159.49z
		 M71.19,71.01c0-6.79,5.47-12.3,12.23-12.3s12.23,5.51,12.23,12.3s-5.47,12.3-12.23,12.3S71.19,77.8,71.19,71.01z M77.58,115.19
		c0-6.79,5.47-12.3,12.23-12.3s12.23,5.51,12.23,12.3c0,6.79-5.47,12.3-12.23,12.3S77.58,121.98,77.58,115.19z M102.03,176.87
		c-6.75,0-12.23-5.51-12.23-12.3c0-6.79,5.48-12.3,12.23-12.3c6.75,0,12.23,5.51,12.23,12.3
		C114.26,171.37,108.79,176.87,102.03,176.87z M128.31,137.6c-6.75,0-12.23-5.51-12.23-12.3c0-6.79,5.47-12.3,12.23-12.3
		c6.75,0,12.23,5.51,12.23,12.3C140.54,132.09,135.06,137.6,128.31,137.6z M164.95,147.19c-6.75,0-12.23-5.51-12.23-12.3
		s5.48-12.3,12.23-12.3c6.75,0,12.23,5.51,12.23,12.3S171.7,147.19,164.95,147.19z"/>
	<g>
		<path d="M83.4,5.78c-4.37-3.34-9.23-1.77-10.82,3.5L3.12,240.52c-1.58,5.27,1.2,7.67,6.18,5.33l231.25-108.56
			c4.98-2.34,5.48-6.99,1.11-10.33L83.4,5.78z M71.43,42.8c1.58-5.27,6.45-6.84,10.82-3.5L206.7,134.6
			c4.37,3.34,3.87,7.99-1.11,10.33L22.74,230.77c-4.98,2.34-7.76-0.06-6.18-5.33L71.43,42.8z"/>
	</g>
	<ellipse cx="83.42" cy="71.01" rx="12.23" ry="12.3"/>
	<ellipse cx="102.03" cy="164.57" rx="12.23" ry="12.3"/>
	<ellipse cx="89.8" cy="115.19" rx="12.23" ry="12.3"/>
	<ellipse cx="61.52" cy="147.19" rx="12.23" ry="12.3"/>
	<ellipse cx="49.29" cy="189.17" rx="12.23" ry="12.3"/>
	<ellipse cx="128.31" cy="125.3" rx="12.23" ry="12.3"/>
	<ellipse cx="164.95" cy="134.89" rx="12.23" ry="12.3"/>
</g>
<g>
</g>
<g>
</g>
<g>
</g>
<g>
</g>
<g>
</g>
<g>
</g>
</svg>
