<?xml version="1.0" encoding="utf-8"?>
<!-- Generator: Adobe Illustrator 16.0.4, SVG Export Plug-In . SVG Version: 6.00 Build 0)  -->
<!DOCTYPE svg PUBLIC "-//W3C//DTD SVG 1.1//EN" "http://www.w3.org/Graphics/SVG/1.1/DTD/svg11.dtd">
<svg version="1.1" id="Layer_1" xmlns="http://www.w3.org/2000/svg" xmlns:xlink="http://www.w3.org/1999/xlink" x="0px" y="0px"
	 width="250px" height="250px" viewBox="0 0 250 250" enable-background="new 0 0 250 250" xml:space="preserve">
<g>
	<path fill="none" d="M74.87,105.47c0,0.29,0.07,0.58,0.16,0.86l23.59,123.5c0,4.27,13.78,7.74,30.78,7.74s30.78-3.46,30.78-7.74
		l21.46-123.58c0.08-0.26,0.14-0.52,0.14-0.78c0-6.36-23.93-11.52-53.45-11.52C98.8,93.96,74.87,99.11,74.87,105.47z"/>
	<path d="M203.65,5.88h-40.45L147.2,69.58l0.06,0c-6-0.39-12.36-0.6-18.94-0.6c-36.45,0-66,6.37-66,14.22c0,0.36,0.08,0.71,0.2,1.06
		l29.13,152.5c0,5.28,17.01,9.56,38,9.56s38-4.28,38-9.56l26.5-152.6c0.1-0.32,0.17-0.64,0.17-0.96c0-5.83-16.26-10.83-39.53-13.03
		l0.02,0l15.05-56.76l33.78,0.44c1.35,0,2.44-1.79,2.44-4C206.1,7.67,205,5.88,203.65,5.88z M181.77,105.47
		c0,0.26-0.05,0.52-0.14,0.78l-21.46,123.58c0,4.27-13.78,7.74-30.78,7.74s-30.78-3.46-30.78-7.74l-23.59-123.5
		c-0.1-0.29-0.16-0.57-0.16-0.86c0-6.36,23.93-11.52,53.45-11.52C157.84,93.96,181.77,99.11,181.77,105.47z"/>
</g>
<g>
</g>
<g>
</g>
<g>
</g>
<g>
</g>
<g>
</g>
<g>
</g>
</svg>
